<?xml version="1.0" encoding="UTF-8" standalone="no"?>
<!DOCTYPE svg PUBLIC "-//W3C//DTD SVG 1.1//EN" "http://www.w3.org/Graphics/SVG/1.1/DTD/svg11.dtd">
<svg xmlns="http://www.w3.org/2000/svg" version="1.1" viewBox="0 0 598 633">
<clipPath id="clipping-path-0">
<path d="
  M 0.00 0.00
  L 598.00 0.00
  L 598.00 633.00
  L 0.00 633.00
  L 0.00 0.00
  Z"/>
</clipPath>
<g stroke-width="2.0" fill="none" stroke-linecap="butt" clip-path="url(#clipping-path-0)">
<path stroke="#fff08d" vector-effect="non-scaling-stroke" d="
  M 264.19 243.81
  L 264.25 402.37
  A 0.91 0.90 -0.3 0 0 265.17 403.27
  L 288.19 402.94
  A 0.51 0.51 -0.6 0 0 288.69 402.43
  L 288.75 243.77
  A 0.52 0.52 -90.0 0 1 289.27 243.25
  L 304.33 243.25
  A 0.67 0.67 0.2 0 1 305.00 243.92
  L 305.00 402.54
  A 0.66 0.64 0.0 0 0 305.66 403.18
  L 328.57 403.01
  A 0.68 0.67 0.0 0 0 329.25 402.34
  L 329.25 244.10
  A 0.85 0.85 -0.0 0 1 330.10 243.25
  L 344.94 243.25
  A 0.56 0.56 -0.0 0 1 345.50 243.81
  L 345.50 402.56
  A 0.51 0.51 0.0 0 0 346.01 403.07
  L 389.48 403.00
  A 0.71 0.71 0.0 0 0 390.19 402.29
  Q 390.30 346.72 390.14 290.75
  Q 390.12 286.87 390.55 282.51
  A 0.57 0.56 -87.2 0 1 391.11 282.00
  L 427.39 282.00
  Q 429.13 282.00 429.93 283.55
  Q 435.68 294.71 437.91 307.07
  Q 441.87 329.06 440.92 351.28
  Q 440.41 363.33 439.32 371.20
  Q 437.04 387.63 429.96 402.80
  A 0.31 0.31 12.7 0 0 430.24 403.24
  L 468.46 403.01
  A 1.29 1.28 7.9 0 0 469.68 402.10
  Q 474.26 386.44 476.10 370.96
  Q 477.19 361.80 477.63 351.03
  Q 478.84 321.20 472.10 291.98
  Q 467.86 273.54 457.44 259.56
  Q 450.42 250.15 439.34 246.88
  Q 434.64 245.50 425.53 245.50
  Q 408.82 245.50 391.28 245.50
  A 1.03 1.03 89.8 0 1 390.25 244.47
  L 390.25 195.77
  Q 390.25 194.35 390.79 193.04
  Q 394.42 184.27 394.28 175.31
  Q 394.15 166.55 390.28 158.14
  Q 384.75 146.11 373.37 139.56
  Q 364.52 134.47 354.41 133.79
  Q 338.59 132.71 324.93 143.10
  A 1.71 1.70 -56.0 0 1 323.45 143.39
  Q 308.63 139.39 297.83 145.54
  A 2.88 2.87 -45.1 0 1 295.01 145.55
  Q 266.72 129.74 240.43 146.45
  Q 239.35 147.14 239.64 145.89
  Q 239.94 144.63 239.71 142.72
  Q 237.70 126.34 227.49 114.64
  Q 220.99 107.20 211.80 102.43
  Q 192.23 92.27 170.56 100.56
  Q 154.25 106.81 145.54 121.72
  Q 140.38 130.54 138.85 140.45
  Q 136.76 154.04 142.06 166.69
  Q 149.89 185.36 168.12 194.03
  A 1.11 1.10 -77.3 0 1 168.75 195.03
  L 168.75 402.57
  A 0.62 0.61 -0.5 0 0 169.38 403.18
  L 207.05 403.00
  A 0.51 0.51 0.0 0 0 207.56 402.49
  L 207.50 243.92
  A 0.67 0.67 -0.0 0 1 208.17 243.25
  L 223.09 243.25
  A 0.66 0.66 45.0 0 1 223.75 243.91
  L 223.75 402.53
  A 0.54 0.54 90.0 0 0 224.29 403.07
  L 247.01 403.00
  A 1.06 1.05 0.0 0 0 248.07 401.95
  L 248.00 244.05
  A 0.80 0.79 -90.0 0 1 248.79 243.25
  L 263.68 243.30
  A 0.52 0.51 0.6 0 1 264.19 243.81"
/>
<path stroke="#808080" vector-effect="non-scaling-stroke" d="
  M 102.05 458.19
  Q 105.85 457.17 106.81 454.06
  Q 109.25 446.18 103.47 442.40
  Q 100.95 440.75 96.59 440.14
  Q 92.95 439.64 89.25 439.79
  Q 81.49 440.12 73.16 440.80
  A 0.71 0.71 -2.2 0 0 72.50 441.51
  Q 72.50 457.16 72.50 472.11
  Q 72.50 472.24 72.35 473.86
  Q 72.17 475.92 74.06 475.91
  Q 76.35 475.90 76.45 475.91
  Q 89.75 477.64 99.75 476.00
  Q 108.45 474.57 108.40 466.21
  Q 108.38 463.29 106.66 461.40
  Q 104.82 459.38 102.04 458.46
  Q 101.60 458.31 102.05 458.19"
/>
<path stroke="#808080" vector-effect="non-scaling-stroke" d="
  M 224.06 464.34
  L 233.80 464.82
  A 1.86 1.74 74.1 0 1 235.20 465.66
  L 241.21 475.08
  A 1.18 1.10 -10.7 0 0 242.00 475.58
  Q 246.01 476.17 249.37 475.46
  A 1.02 1.01 68.6 0 0 250.02 473.95
  L 244.00 463.69
  A 0.50 0.49 -29.9 0 1 244.19 463.01
  Q 248.38 460.68 249.30 456.41
  Q 250.12 452.62 249.35 448.59
  Q 248.62 444.80 245.52 442.58
  Q 243.26 440.97 239.18 440.25
  Q 235.27 439.56 231.25 439.76
  Q 223.49 440.16 215.18 440.79
  A 0.75 0.74 -2.5 0 0 214.50 441.53
  L 214.50 474.87
  A 0.88 0.88 0.0 0 0 215.38 475.75
  L 222.65 475.75
  A 0.87 0.86 -89.7 0 0 223.51 474.89
  L 223.55 464.82
  A 0.49 0.48 1.1 0 1 224.06 464.34"
/>
<path stroke="#808080" vector-effect="non-scaling-stroke" d="
  M 268.72 473.02
  Q 271.69 475.30 274.00 475.75
  Q 284.67 477.84 296.01 475.06
  A 0.66 0.65 83.3 0 0 296.51 474.42
  L 296.57 467.46
  A 0.47 0.46 83.0 0 0 295.99 467.00
  Q 288.69 469.08 281.17 468.75
  Q 277.03 468.56 275.09 467.24
  Q 272.16 465.26 272.06 461.00
  Q 271.98 457.62 272.27 454.25
  Q 272.51 451.34 274.45 449.70
  Q 275.85 448.52 278.85 448.11
  Q 287.52 446.93 295.96 449.54
  A 0.39 0.37 8.6 0 0 296.47 449.19
  L 296.36 442.19
  A 0.74 0.66 8.3 0 0 295.83 441.55
  Q 285.13 438.57 276.06 440.31
  Q 262.90 442.85 263.22 458.10
  Q 263.27 460.40 263.12 462.69
  Q 262.75 468.46 268.72 473.02"
/>
<path stroke="#808080" vector-effect="non-scaling-stroke" d="
  M 348.91 455.17
  A 15.24 15.24 0.0 0 0 333.67 439.93
  L 324.33 439.93
  A 15.24 15.24 0.0 0 0 309.09 455.17
  L 309.09 461.33
  A 15.24 15.24 0.0 0 0 324.33 476.57
  L 333.67 476.57
  A 15.24 15.24 0.0 0 0 348.91 461.33
  L 348.91 455.17"
/>
<path stroke="#808080" vector-effect="non-scaling-stroke" d="
  M 363.51 475.53
  Q 374.10 477.44 384.53 476.22
  Q 390.58 475.51 393.65 473.68
  Q 398.31 470.92 399.50 465.50
  Q 400.90 459.13 399.86 452.68
  Q 398.61 444.91 391.44 441.81
  Q 384.30 438.73 373.73 439.76
  Q 369.11 440.21 363.64 440.85
  A 0.73 0.72 -3.6 0 0 363.00 441.57
  L 363.00 474.92
  A 0.62 0.62 -85.0 0 0 363.51 475.53"
/>
<path stroke="#808080" vector-effect="non-scaling-stroke" d="
  M 480.94 465.49
  L 486.38 474.28
  Q 487.29 475.74 488.86 475.70
  L 495.77 475.50
  A 0.50 0.48 73.4 0 0 496.16 474.75
  L 489.78 463.92
  A 0.51 0.49 59.2 0 1 489.94 463.24
  Q 494.53 460.47 495.25 455.60
  Q 495.84 451.58 495.08 447.89
  Q 494.16 443.46 489.69 441.56
  Q 484.13 439.20 477.02 439.70
  Q 471.57 440.09 471.48 440.09
  Q 466.46 440.30 461.00 440.82
  A 0.56 0.55 -2.9 0 0 460.50 441.37
  L 460.50 475.24
  A 0.49 0.46 89.4 0 0 460.97 475.73
  L 469.05 475.52
  A 0.56 0.48 88.9 0 0 469.52 474.95
  L 469.29 464.80
  A 0.47 0.46 1.7 0 1 469.80 464.33
  L 480.20 465.01
  A 1.04 0.87 73.1 0 1 480.94 465.49"
/>
<path stroke="#808080" vector-effect="non-scaling-stroke" d="
  M 532.16 468.10
  Q 530.59 468.73 528.50 468.75
  Q 518.18 468.85 509.74 467.10
  A 0.48 0.48 9.7 0 0 509.17 467.50
  Q 508.66 470.98 509.23 474.44
  A 0.75 0.74 -88.3 0 0 509.80 475.05
  Q 522.67 478.01 534.69 475.69
  Q 539.27 474.80 541.51 471.26
  Q 543.58 467.99 542.99 463.93
  Q 542.10 457.90 535.19 456.24
  Q 529.06 454.77 522.75 454.68
  Q 520.92 454.65 519.53 453.74
  Q 518.08 452.80 518.14 451.09
  Q 518.22 448.47 521.31 448.06
  Q 530.60 446.85 540.52 449.38
  A 0.46 0.46 -79.1 0 0 541.08 449.00
  Q 541.59 445.52 541.02 442.06
  A 0.76 0.76 -87.7 0 0 540.45 441.44
  Q 529.16 438.55 519.00 440.50
  Q 508.98 442.42 509.17 451.66
  Q 509.25 455.68 511.44 458.20
  Q 513.88 461.02 518.00 461.75
  Q 520.48 462.19 531.11 463.15
  Q 532.54 463.28 533.25 463.82
  Q 534.47 464.74 534.07 466.15
  Q 533.69 467.49 532.16 468.10"
/>
<path stroke="#808080" vector-effect="non-scaling-stroke" d="
  M 132.05 448.81
  L 154.47 448.75
  A 1.27 1.12 89.0 0 0 155.58 447.44
  L 155.39 441.63
  A 0.91 0.75 88.8 0 0 154.63 440.75
  L 123.16 440.75
  A 0.60 0.59 -0.0 0 0 122.56 441.34
  L 122.68 475.06
  A 0.52 0.51 90.0 0 0 123.19 475.58
  L 154.80 475.58
  A 0.51 0.50 -0.6 0 0 155.31 475.07
  L 155.20 468.31
  A 0.51 0.51 89.4 0 0 154.69 467.81
  L 132.02 467.75
  A 0.69 0.69 7.6 0 1 131.35 466.88
  Q 131.67 465.75 131.30 464.42
  A 1.36 1.33 -8.0 0 1 132.61 462.73
  L 149.94 462.47
  A 0.50 0.48 87.7 0 0 150.41 461.94
  L 150.09 455.44
  A 0.55 0.53 88.8 0 0 149.57 454.92
  L 131.81 454.69
  A 0.48 0.48 -88.2 0 1 131.34 454.19
  L 131.54 449.32
  A 0.53 0.51 -88.8 0 1 132.05 448.81"
/>
<path stroke="#808080" vector-effect="non-scaling-stroke" d="
  M 177.54 467.19
  L 177.51 463.60
  A 0.92 0.86 -0.6 0 1 178.42 462.73
  L 195.49 462.53
  A 0.84 0.78 -89.6 0 0 196.26 461.71
  L 196.36 456.25
  A 1.48 1.40 -89.4 0 0 194.96 454.74
  L 178.06 454.70
  A 0.55 0.50 1.1 0 1 177.52 454.19
  L 177.63 449.43
  A 0.57 0.52 -0.1 0 1 178.19 448.92
  L 200.56 448.77
  A 0.90 0.85 -0.3 0 0 201.45 447.92
  L 201.50 441.25
  A 0.50 0.50 -45.0 0 0 201.00 440.75
  L 169.18 440.81
  A 0.52 0.50 90.0 0 0 168.68 441.33
  L 168.69 475.23
  A 0.52 0.50 90.0 0 0 169.19 475.75
  L 200.94 475.69
  A 0.52 0.49 0.0 0 0 201.46 475.20
  L 201.45 468.30
  A 0.51 0.49 -0.0 0 0 200.94 467.81
  L 178.07 467.69
  A 0.53 0.50 0.0 0 1 177.54 467.19"
/>
<path stroke="#808080" vector-effect="non-scaling-stroke" d="
  M 423.81 448.81
  L 446.69 448.69
  A 0.53 0.51 -88.8 0 0 447.20 448.18
  L 447.42 441.61
  A 0.82 0.79 -89.3 0 0 446.62 440.76
  L 415.19 440.93
  A 0.51 0.50 -0.0 0 0 414.68 441.43
  L 414.51 474.98
  A 0.77 0.77 0.0 0 0 415.28 475.75
  L 446.30 475.75
  A 0.82 0.77 0.7 0 0 447.12 475.00
  L 447.24 468.31
  A 0.56 0.50 0.0 0 0 446.68 467.81
  L 424.06 467.69
  A 0.67 0.65 -7.4 0 1 423.42 467.21
  Q 422.92 465.25 423.42 463.29
  A 0.70 0.62 5.9 0 1 424.07 462.82
  L 441.51 462.52
  A 0.57 0.53 -0.0 0 0 442.07 462.00
  L 442.18 455.64
  A 0.95 0.88 0.3 0 0 441.23 454.75
  L 424.28 454.75
  A 1.00 0.94 -90.0 0 1 423.34 453.75
  L 423.34 449.32
  A 0.51 0.47 -90.0 0 1 423.81 448.81"
/>
<path stroke="#fdef94" vector-effect="non-scaling-stroke" d="
  M 376.98 507.80
  A 1.78 1.78 0.0 0 0 375.20 506.02
  L 240.32 506.02
  A 1.78 1.78 0.0 0 0 238.54 507.80
  L 238.54 509.46
  A 1.78 1.78 0.0 0 0 240.32 511.24
  L 375.20 511.24
  A 1.78 1.78 0.0 0 0 376.98 509.46
  L 376.98 507.80"
/>
<path stroke="#808080" vector-effect="non-scaling-stroke" d="
  M 222.95 538.32
  Q 223.05 542.25 223.01 546.19
  Q 223.01 546.29 222.87 547.29
  Q 222.61 549.24 226.15 548.52
  A 0.70 0.67 84.4 0 0 226.69 547.84
  L 226.55 534.44
  A 0.54 0.52 -87.7 0 0 226.07 533.90
  Q 219.19 533.43 212.31 534.02
  A 0.56 0.55 88.3 0 0 211.80 534.57
  L 211.75 548.12
  A 0.59 0.57 90.0 0 0 212.32 548.71
  L 214.94 548.72
  A 0.56 0.49 -88.3 0 0 215.44 548.18
  L 215.66 538.44
  A 0.57 0.54 -89.4 0 1 216.19 537.89
  L 222.44 537.78
  A 0.55 0.50 88.9 0 1 222.95 538.32"
/>
<path stroke="#808080" vector-effect="non-scaling-stroke" d="
  M 241.50 540.06
  Q 242.21 545.56 241.75 546.75
  Q 240.75 549.32 244.75 548.49
  A 0.63 0.62 84.5 0 0 245.25 547.87
  L 245.25 534.55
  A 0.80 0.78 -84.8 0 0 244.61 533.77
  Q 242.42 533.35 241.13 534.86
  Q 237.60 538.99 234.30 543.33
  Q 233.75 544.05 233.75 543.14
  Q 233.75 539.87 233.75 536.50
  Q 233.75 536.39 233.84 535.51
  Q 234.06 533.40 230.50 534.32
  A 0.67 0.66 -7.4 0 0 230.00 534.96
  L 230.06 547.93
  A 0.75 0.68 -81.3 0 0 230.52 548.62
  Q 231.91 549.09 233.16 548.65
  Q 234.14 548.31 235.31 546.75
  Q 238.00 543.17 241.09 539.92
  Q 241.44 539.56 241.50 540.06"
/>
<path stroke="#808080" vector-effect="non-scaling-stroke" d="
  M 261.87 541.17
  L 263.13 539.84
  A 1.42 1.09 72.0 0 0 263.45 538.94
  Q 263.46 534.39 258.75 534.01
  Q 254.74 533.69 249.60 534.41
  A 0.99 0.99 86.0 0 0 248.75 535.39
  L 248.75 547.57
  A 0.82 0.82 3.6 0 0 249.47 548.38
  Q 254.28 548.95 258.45 548.66
  Q 261.13 548.47 262.61 547.30
  Q 265.59 544.95 261.89 541.82
  A 0.46 0.43 -48.8 0 1 261.87 541.17"
/>
<path stroke="#808080" vector-effect="non-scaling-stroke" d="
  M 304.45 540.06
  Q 304.53 542.79 304.51 545.53
  Q 304.50 547.85 304.54 547.95
  Q 305.04 549.07 307.74 548.48
  A 0.65 0.64 -6.1 0 0 308.25 547.85
  L 308.25 534.66
  A 0.62 0.62 -85.0 0 0 307.74 534.05
  Q 305.47 533.66 304.15 534.57
  Q 303.97 534.69 302.00 537.11
  Q 299.47 540.21 297.11 543.22
  Q 296.50 544.00 296.50 543.01
  L 296.50 535.25
  A 1.24 1.24 -88.0 0 0 295.35 534.01
  Q 293.23 533.87 292.79 534.72
  Q 292.71 534.89 292.81 536.78
  Q 293.08 541.43 293.01 546.09
  Q 293.01 546.17 292.81 547.38
  Q 292.54 548.96 295.31 548.66
  A 4.31 3.06 -65.5 0 0 297.77 547.23
  L 304.08 539.91
  Q 304.44 539.50 304.45 540.06"
/>
<path stroke="#808080" vector-effect="non-scaling-stroke" d="
  M 326.05 537.99
  L 330.43 537.68
  A 1.22 0.59 4.3 0 0 331.30 537.34
  Q 331.57 536.96 331.44 536.47
  Q 331.29 535.87 331.34 535.51
  Q 331.61 533.47 329.67 533.64
  Q 328.42 533.75 328.32 533.75
  Q 323.23 533.75 317.34 533.75
  A 0.87 0.75 1.4 0 0 316.48 534.46
  L 316.35 537.28
  A 0.69 0.38 4.6 0 0 317.00 537.71
  L 321.58 538.07
  A 0.62 0.52 -88.0 0 1 322.07 538.69
  L 321.84 547.94
  A 0.71 0.59 -83.3 0 0 322.28 548.62
  Q 323.29 548.89 325.14 548.53
  A 0.76 0.76 -6.2 0 0 325.76 547.76
  L 325.57 538.57
  A 0.57 0.51 87.9 0 1 326.05 537.99"
/>
<path stroke="#808080" vector-effect="non-scaling-stroke" d="
  M 350.4333 540.3591
  A 6.46 6.46 0.0 0 0 343.9959 533.8766
  L 340.2359 533.8635
  A 6.46 6.46 0.0 0 0 333.7534 540.3009
  L 333.7467 542.2409
  A 6.46 6.46 0.0 0 0 340.1841 548.7234
  L 343.9441 548.7365
  A 6.46 6.46 0.0 0 0 350.4266 542.2991
  L 350.4333 540.3591"
/>
<path stroke="#808080" vector-effect="non-scaling-stroke" d="
  M 364.31 546.45
  L 364.14 547.94
  A 0.63 0.59 -77.6 0 0 364.54 548.61
  Q 368.68 550.03 367.75 545.50
  Q 367.34 543.50 367.67 534.57
  A 0.59 0.48 -88.9 0 0 367.19 533.96
  L 364.81 533.96
  A 0.61 0.51 -89.4 0 0 364.30 534.56
  L 364.20 540.18
  A 0.57 0.49 -88.5 0 1 363.69 540.74
  L 357.43 540.41
  A 0.69 0.57 86.9 0 1 356.87 539.81
  Q 356.71 538.54 356.62 537.25
  Q 356.61 537.13 356.75 535.40
  Q 356.91 533.35 353.88 534.17
  A 0.75 0.74 85.6 0 0 353.33 534.82
  Q 353.07 537.69 353.37 540.09
  Q 353.71 542.93 355.71 543.86
  Q 358.03 544.95 361.96 544.50
  Q 364.58 544.20 364.31 546.45"
/>
<path stroke="#808080" vector-effect="non-scaling-stroke" d="
  M 375.19 539.21
  Q 374.65 536.99 375.25 534.76
  A 0.72 0.72 11.1 0 0 374.65 533.87
  Q 372.82 533.62 371.75 534.08
  A 0.83 0.69 80.6 0 0 371.32 534.81
  L 371.26 547.99
  A 0.66 0.43 88.9 0 0 371.72 548.66
  L 374.55 548.43
  A 0.69 0.61 83.3 0 0 375.10 547.65
  Q 374.43 543.26 376.97 543.76
  Q 378.10 543.98 379.54 545.44
  Q 380.98 546.90 382.45 548.34
  A 1.56 1.48 69.0 0 0 383.31 548.75
  Q 388.21 549.31 385.30 546.78
  Q 384.51 546.10 384.01 545.42
  Q 382.65 543.59 381.07 541.95
  A 0.55 0.48 43.4 0 1 381.01 541.27
  L 385.93 535.20
  A 0.79 0.74 -62.0 0 0 385.60 533.97
  Q 382.88 533.22 381.29 535.50
  Q 380.45 536.71 380.18 537.03
  Q 379.57 537.75 379.02 538.51
  Q 377.83 540.15 375.80 539.80
  A 0.79 0.76 88.1 0 1 375.19 539.21"
/>
<path stroke="#808080" vector-effect="non-scaling-stroke" d="
  M 400.02 546.80
  Q 400.57 549.38 403.68 548.71
  A 0.64 0.64 71.0 0 0 404.12 547.80
  Q 401.66 542.77 399.43 537.75
  Q 399.40 537.69 398.81 536.08
  Q 397.69 532.97 394.28 534.14
  A 1.27 1.06 -83.1 0 0 393.60 534.78
  L 387.53 547.75
  A 0.56 0.53 -63.0 0 0 387.74 548.46
  Q 389.39 549.39 390.81 548.27
  A 1.45 0.94 85.1 0 0 391.25 547.44
  Q 391.60 545.55 393.49 545.61
  Q 395.39 545.66 395.50 545.66
  Q 397.54 545.56 399.46 546.15
  A 0.90 0.80 -89.1 0 1 400.02 546.80"
/>
<path stroke="#808080" vector-effect="non-scaling-stroke" d="
  M 283.4665 540.0237
  A 6.08 6.08 0.0 0 0 277.3231 534.0077
  L 272.9834 534.0531
  A 6.08 6.08 0.0 0 0 266.9674 540.1965
  L 266.9935 542.6963
  A 6.08 6.08 0.0 0 0 273.1369 548.7123
  L 277.4766 548.6669
  A 6.08 6.08 0.0 0 0 283.4926 542.5235
  L 283.4665 540.0237"
/>
<path stroke="#fff08d" vector-effect="non-scaling-stroke" d="
  M 296.73 170.30
  Q 291.23 161.44 282.41 157.20
  Q 273.89 153.10 264.12 154.37
  Q 247.16 156.57 238.36 173.95
  A 0.49 0.49 40.2 0 1 237.52 174.02
  Q 230.22 163.97 218.55 166.81
  Q 218.07 166.93 218.31 166.51
  Q 222.23 159.64 223.22 152.02
  Q 224.21 144.45 221.86 137.14
  Q 218.69 127.29 210.78 121.00
  Q 203.39 115.13 193.51 113.70
  Q 180.30 111.78 169.67 119.36
  Q 161.45 125.22 157.45 133.93
  Q 153.22 143.16 155.06 153.69
  Q 156.52 161.99 161.75 168.68
  Q 166.65 174.94 174.15 178.62
  Q 190.48 186.65 208.08 176.80
  Q 208.51 176.56 208.37 177.04
  Q 206.25 184.42 209.60 190.20
  Q 212.73 195.61 219.09 197.74
  Q 227.93 200.70 235.60 193.15
  A 0.64 0.63 59.6 0 1 236.66 193.43
  Q 241.66 210.61 256.71 216.55
  Q 263.37 219.18 270.06 218.82
  Q 277.18 218.43 283.44 214.94
  Q 300.50 205.41 301.00 185.49
  Q 301.02 184.81 301.52 185.27
  Q 312.31 195.13 323.58 186.40
  Q 324.00 186.07 324.88 185.08
  Q 326.42 183.34 327.09 185.45
  Q 327.56 186.96 327.75 187.35
  Q 334.53 201.01 348.11 202.67
  Q 358.05 203.88 366.14 198.83
  Q 374.86 193.38 377.44 182.44
  Q 378.85 176.44 377.24 170.20
  Q 375.73 164.37 371.73 159.65
  Q 364.51 151.15 353.36 150.56
  Q 345.25 150.13 338.71 153.88
  Q 331.83 157.82 327.96 165.40
  A 0.68 0.67 40.7 0 1 326.81 165.48
  Q 322.37 159.35 315.76 158.28
  Q 309.77 157.31 304.66 160.41
  Q 299.41 163.59 297.43 170.20
  Q 297.18 171.04 296.73 170.30"
/>
<path stroke="#fee11a" vector-effect="non-scaling-stroke" d="
  M 203.23 194.96
  Q 201.99 194.16 201.35 194.85
  Q 200.04 196.26 198.49 197.35
  Q 198.22 197.54 195.70 198.63
  Q 193.96 199.38 193.48 200.99
  Q 192.94 202.79 194.74 202.25
  Q 197.88 201.32 200.80 199.84
  Q 203.62 198.41 203.51 195.44
  A 0.60 0.58 15.7 0 0 203.23 194.96"
/>
<path stroke="#fee11a" vector-effect="non-scaling-stroke" d="
  M 189.04 205.01
  Q 183.56 203.37 184.20 208.06
  Q 184.21 208.11 184.51 209.30
  Q 185.04 211.43 183.02 212.48
  Q 182.56 212.72 183.03 212.87
  Q 185.12 213.53 186.21 211.45
  Q 187.65 208.68 189.36 205.82
  A 0.55 0.55 23.5 0 0 189.04 205.01"
/>
<path stroke="#fee11a" vector-effect="non-scaling-stroke" d="
  M 320.22 207.52
  Q 320.91 206.88 321.03 205.69
  A 0.46 0.44 84.4 0 0 320.46 205.20
  L 316.67 206.44
  A 0.98 0.92 66.3 0 0 316.18 207.81
  Q 316.72 208.80 316.52 209.79
  Q 316.37 210.55 315.50 211.35
  Q 313.57 213.13 311.46 214.29
  Q 309.65 215.28 308.08 213.95
  Q 306.59 212.70 304.79 213.51
  Q 301.41 215.02 298.57 217.37
  A 1.89 1.40 14.2 0 1 297.69 217.73
  Q 295.45 218.02 294.91 220.19
  A 0.42 0.41 -82.9 0 0 295.31 220.71
  Q 296.81 220.72 298.07 219.83
  Q 300.57 218.05 305.03 216.32
  A 2.23 2.20 -43.6 0 1 306.69 216.35
  Q 312.66 218.94 316.81 213.56
  Q 318.28 211.66 319.63 208.27
  Q 319.77 207.93 320.22 207.52"
/>
<path stroke="#808080" vector-effect="non-scaling-stroke" d="
  M 97.63 448.45
  Q 89.84 447.03 82.06 448.23
  A 0.62 0.58 -4.1 0 0 81.54 448.80
  L 81.51 454.09
  A 0.64 0.64 0.5 0 0 82.14 454.73
  Q 89.63 454.90 96.23 454.27
  Q 100.55 453.86 99.05 449.66
  A 1.86 1.85 85.3 0 0 97.63 448.45"
/>
<path stroke="#808080" vector-effect="non-scaling-stroke" d="
  M 100.2478 464.8629
  A 1.98 1.98 0.0 0 0 98.2851 462.8656
  L 83.2657 462.7346
  A 1.98 1.98 0.0 0 0 81.2685 464.6972
  L 81.2522 466.5571
  A 1.98 1.98 0.0 0 0 83.2149 468.5544
  L 98.2343 468.6854
  A 1.98 1.98 0.0 0 0 100.2315 466.7228
  L 100.2478 464.8629"
/>
<path stroke="#808080" vector-effect="non-scaling-stroke" d="
  M 227.18 456.67
  Q 230.39 456.97 233.59 456.72
  Q 237.53 456.43 237.90 456.32
  Q 240.48 455.61 240.69 452.26
  Q 240.93 448.44 237.50 448.00
  Q 231.46 447.23 224.06 448.24
  A 0.60 0.58 -3.9 0 0 223.54 448.82
  L 223.55 455.93
  A 0.54 0.53 1.1 0 0 224.07 456.46
  Q 225.63 456.52 227.18 456.67"
/>
<path stroke="#808080" vector-effect="non-scaling-stroke" d="
  M 340.11 455.51
  A 7.67 7.67 0.0 0 0 332.44 447.84
  L 325.70 447.84
  A 7.67 7.67 0.0 0 0 318.03 455.51
  L 318.03 460.99
  A 7.67 7.67 0.0 0 0 325.70 468.66
  L 332.44 468.66
  A 7.67 7.67 0.0 0 0 340.11 460.99
  L 340.11 455.51"
/>
<path stroke="#808080" vector-effect="non-scaling-stroke" d="
  M 386.33 448.73
  Q 383.96 447.73 381.25 447.74
  Q 377.00 447.75 372.56 447.75
  A 0.56 0.56 0.0 0 0 372.00 448.31
  L 372.00 468.19
  A 0.54 0.54 1.1 0 0 372.52 468.73
  Q 378.51 468.91 383.72 468.26
  Q 391.34 467.32 391.17 460.21
  Q 391.17 459.99 391.18 456.29
  Q 391.19 453.91 390.10 451.96
  Q 388.89 449.80 386.33 448.73"
/>
<path stroke="#808080" vector-effect="non-scaling-stroke" d="
  M 472.93 456.65
  Q 476.48 456.98 480.02 456.70
  Q 483.35 456.44 483.96 456.23
  Q 486.23 455.45 486.40 452.43
  Q 486.63 448.07 482.25 447.75
  Q 478.91 447.50 470.06 448.03
  A 0.55 0.53 -1.7 0 0 469.54 448.56
  L 469.55 455.95
  A 0.53 0.51 1.2 0 0 470.06 456.46
  Q 471.50 456.52 472.93 456.65"
/>
<path stroke="#808080" vector-effect="non-scaling-stroke" d="
  M 260.4602 538.7514
  A 0.95 0.95 0.0 0 0 259.5151 537.7965
  L 253.2352 537.7636
  A 0.95 0.95 0.0 0 0 252.2803 538.7086
  L 252.2798 538.7886
  A 0.95 0.95 0.0 0 0 253.2249 539.7435
  L 259.5048 539.7764
  A 0.95 0.95 0.0 0 0 260.4597 538.8314
  L 260.4602 538.7514"
/>
<path stroke="#808080" vector-effect="non-scaling-stroke" d="
  M 260.7785 544.4361
  A 4.35 0.73 -1.5 0 0 256.4109 543.8203
  A 4.35 0.73 -1.5 0 0 252.0815 544.6639
  A 4.35 0.73 -1.5 0 0 256.4491 545.2797
  A 4.35 0.73 -1.5 0 0 260.7785 544.4361"
/>
<path stroke="#808080" vector-effect="non-scaling-stroke" d="
  M 346.7186 540.5218
  A 2.94 2.94 0.0 0 0 343.7734 537.5869
  L 340.2534 537.5931
  A 2.94 2.94 0.0 0 0 337.3186 540.5382
  L 337.3214 542.1782
  A 2.94 2.94 0.0 0 0 340.2666 545.1131
  L 343.7866 545.1069
  A 2.94 2.94 0.0 0 0 346.7214 542.1618
  L 346.7186 540.5218"
/>
<path stroke="#808080" vector-effect="non-scaling-stroke" d="
  M 395.50 538.32
  L 393.53 542.24
  A 0.33 0.32 -76.6 0 0 393.81 542.71
  L 397.63 542.75
  A 0.42 0.42 -13.3 0 0 398.01 542.14
  L 396.11 538.32
  Q 395.81 537.71 395.50 538.32"
/>
<path stroke="#808080" vector-effect="non-scaling-stroke" d="
  M 280.0098 540.5880
  A 2.78 2.78 0.0 0 0 277.2640 537.7742
  L 273.3442 537.7263
  A 2.78 2.78 0.0 0 0 270.5305 540.4722
  L 270.5102 542.1320
  A 2.78 2.78 0.0 0 0 273.2560 544.9458
  L 277.1758 544.9937
  A 2.78 2.78 0.0 0 0 279.9895 542.2478
  L 280.0098 540.5880"
/>
</g>
<path fill="#ffffff" d="
  M 0.00 0.00
  Q 299.00 0.00 598.00 0.00
  Q 598.00 316.50 598.00 633.00
  Q 299.00 633.00 0.00 633.00
  Q 0.00 316.50 0.00 0.00
  Z
  M 264.19 243.81
  L 264.25 402.37
  A 0.91 0.90 -0.3 0 0 265.17 403.27
  L 288.19 402.94
  A 0.51 0.51 -0.6 0 0 288.69 402.43
  L 288.75 243.77
  A 0.52 0.52 -90.0 0 1 289.27 243.25
  L 304.33 243.25
  A 0.67 0.67 0.2 0 1 305.00 243.92
  L 305.00 402.54
  A 0.66 0.64 0.0 0 0 305.66 403.18
  L 328.57 403.01
  A 0.68 0.67 0.0 0 0 329.25 402.34
  L 329.25 244.10
  A 0.85 0.85 -0.0 0 1 330.10 243.25
  L 344.94 243.25
  A 0.56 0.56 -0.0 0 1 345.50 243.81
  L 345.50 402.56
  A 0.51 0.51 0.0 0 0 346.01 403.07
  L 389.48 403.00
  A 0.71 0.71 0.0 0 0 390.19 402.29
  Q 390.30 346.72 390.14 290.75
  Q 390.12 286.87 390.55 282.51
  A 0.57 0.56 -87.2 0 1 391.11 282.00
  L 427.39 282.00
  Q 429.13 282.00 429.93 283.55
  Q 435.68 294.71 437.91 307.07
  Q 441.87 329.06 440.92 351.28
  Q 440.41 363.33 439.32 371.20
  Q 437.04 387.63 429.96 402.80
  A 0.31 0.31 12.7 0 0 430.24 403.24
  L 468.46 403.01
  A 1.29 1.28 7.9 0 0 469.68 402.10
  Q 474.26 386.44 476.10 370.96
  Q 477.19 361.80 477.63 351.03
  Q 478.84 321.20 472.10 291.98
  Q 467.86 273.54 457.44 259.56
  Q 450.42 250.15 439.34 246.88
  Q 434.64 245.50 425.53 245.50
  Q 408.82 245.50 391.28 245.50
  A 1.03 1.03 89.8 0 1 390.25 244.47
  L 390.25 195.77
  Q 390.25 194.35 390.79 193.04
  Q 394.42 184.27 394.28 175.31
  Q 394.15 166.55 390.28 158.14
  Q 384.75 146.11 373.37 139.56
  Q 364.52 134.47 354.41 133.79
  Q 338.59 132.71 324.93 143.10
  A 1.71 1.70 -56.0 0 1 323.45 143.39
  Q 308.63 139.39 297.83 145.54
  A 2.88 2.87 -45.1 0 1 295.01 145.55
  Q 266.72 129.74 240.43 146.45
  Q 239.35 147.14 239.64 145.89
  Q 239.94 144.63 239.71 142.72
  Q 237.70 126.34 227.49 114.64
  Q 220.99 107.20 211.80 102.43
  Q 192.23 92.27 170.56 100.56
  Q 154.25 106.81 145.54 121.72
  Q 140.38 130.54 138.85 140.45
  Q 136.76 154.04 142.06 166.69
  Q 149.89 185.36 168.12 194.03
  A 1.11 1.10 -77.3 0 1 168.75 195.03
  L 168.75 402.57
  A 0.62 0.61 -0.5 0 0 169.38 403.18
  L 207.05 403.00
  A 0.51 0.51 0.0 0 0 207.56 402.49
  L 207.50 243.92
  A 0.67 0.67 -0.0 0 1 208.17 243.25
  L 223.09 243.25
  A 0.66 0.66 45.0 0 1 223.75 243.91
  L 223.75 402.53
  A 0.54 0.54 90.0 0 0 224.29 403.07
  L 247.01 403.00
  A 1.06 1.05 0.0 0 0 248.07 401.95
  L 248.00 244.05
  A 0.80 0.79 -90.0 0 1 248.79 243.25
  L 263.68 243.30
  A 0.52 0.51 0.6 0 1 264.19 243.81
  Z
  M 102.05 458.19
  Q 105.85 457.17 106.81 454.06
  Q 109.25 446.18 103.47 442.40
  Q 100.95 440.75 96.59 440.14
  Q 92.95 439.64 89.25 439.79
  Q 81.49 440.12 73.16 440.80
  A 0.71 0.71 -2.2 0 0 72.50 441.51
  Q 72.50 457.16 72.50 472.11
  Q 72.50 472.24 72.35 473.86
  Q 72.17 475.92 74.06 475.91
  Q 76.35 475.90 76.45 475.91
  Q 89.75 477.64 99.75 476.00
  Q 108.45 474.57 108.40 466.21
  Q 108.38 463.29 106.66 461.40
  Q 104.82 459.38 102.04 458.46
  Q 101.60 458.31 102.05 458.19
  Z
  M 224.06 464.34
  L 233.80 464.82
  A 1.86 1.74 74.1 0 1 235.20 465.66
  L 241.21 475.08
  A 1.18 1.10 -10.7 0 0 242.00 475.58
  Q 246.01 476.17 249.37 475.46
  A 1.02 1.01 68.6 0 0 250.02 473.95
  L 244.00 463.69
  A 0.50 0.49 -29.9 0 1 244.19 463.01
  Q 248.38 460.68 249.30 456.41
  Q 250.12 452.62 249.35 448.59
  Q 248.62 444.80 245.52 442.58
  Q 243.26 440.97 239.18 440.25
  Q 235.27 439.56 231.25 439.76
  Q 223.49 440.16 215.18 440.79
  A 0.75 0.74 -2.5 0 0 214.50 441.53
  L 214.50 474.87
  A 0.88 0.88 0.0 0 0 215.38 475.75
  L 222.65 475.75
  A 0.87 0.86 -89.7 0 0 223.51 474.89
  L 223.55 464.82
  A 0.49 0.48 1.1 0 1 224.06 464.34
  Z
  M 268.72 473.02
  Q 271.69 475.30 274.00 475.75
  Q 284.67 477.84 296.01 475.06
  A 0.66 0.65 83.3 0 0 296.51 474.42
  L 296.57 467.46
  A 0.47 0.46 83.0 0 0 295.99 467.00
  Q 288.69 469.08 281.17 468.75
  Q 277.03 468.56 275.09 467.24
  Q 272.16 465.26 272.06 461.00
  Q 271.98 457.62 272.27 454.25
  Q 272.51 451.34 274.45 449.70
  Q 275.85 448.52 278.85 448.11
  Q 287.52 446.93 295.96 449.54
  A 0.39 0.37 8.6 0 0 296.47 449.19
  L 296.36 442.19
  A 0.74 0.66 8.3 0 0 295.83 441.55
  Q 285.13 438.57 276.06 440.31
  Q 262.90 442.85 263.22 458.10
  Q 263.27 460.40 263.12 462.69
  Q 262.75 468.46 268.72 473.02
  Z
  M 348.91 455.17
  A 15.24 15.24 0.0 0 0 333.67 439.93
  L 324.33 439.93
  A 15.24 15.24 0.0 0 0 309.09 455.17
  L 309.09 461.33
  A 15.24 15.24 0.0 0 0 324.33 476.57
  L 333.67 476.57
  A 15.24 15.24 0.0 0 0 348.91 461.33
  L 348.91 455.17
  Z
  M 363.51 475.53
  Q 374.10 477.44 384.53 476.22
  Q 390.58 475.51 393.65 473.68
  Q 398.31 470.92 399.50 465.50
  Q 400.90 459.13 399.86 452.68
  Q 398.61 444.91 391.44 441.81
  Q 384.30 438.73 373.73 439.76
  Q 369.11 440.21 363.64 440.85
  A 0.73 0.72 -3.6 0 0 363.00 441.57
  L 363.00 474.92
  A 0.62 0.62 -85.0 0 0 363.51 475.53
  Z
  M 480.94 465.49
  L 486.38 474.28
  Q 487.29 475.74 488.86 475.70
  L 495.77 475.50
  A 0.50 0.48 73.4 0 0 496.16 474.75
  L 489.78 463.92
  A 0.51 0.49 59.2 0 1 489.94 463.24
  Q 494.53 460.47 495.25 455.60
  Q 495.84 451.58 495.08 447.89
  Q 494.16 443.46 489.69 441.56
  Q 484.13 439.20 477.02 439.70
  Q 471.57 440.09 471.48 440.09
  Q 466.46 440.30 461.00 440.82
  A 0.56 0.55 -2.9 0 0 460.50 441.37
  L 460.50 475.24
  A 0.49 0.46 89.4 0 0 460.97 475.73
  L 469.05 475.52
  A 0.56 0.48 88.9 0 0 469.52 474.95
  L 469.29 464.80
  A 0.47 0.46 1.7 0 1 469.80 464.33
  L 480.20 465.01
  A 1.04 0.87 73.1 0 1 480.94 465.49
  Z
  M 532.16 468.10
  Q 530.59 468.73 528.50 468.75
  Q 518.18 468.85 509.74 467.10
  A 0.48 0.48 9.7 0 0 509.17 467.50
  Q 508.66 470.98 509.23 474.44
  A 0.75 0.74 -88.3 0 0 509.80 475.05
  Q 522.67 478.01 534.69 475.69
  Q 539.27 474.80 541.51 471.26
  Q 543.58 467.99 542.99 463.93
  Q 542.10 457.90 535.19 456.24
  Q 529.06 454.77 522.75 454.68
  Q 520.92 454.65 519.53 453.74
  Q 518.08 452.80 518.14 451.09
  Q 518.22 448.47 521.31 448.06
  Q 530.60 446.85 540.52 449.38
  A 0.46 0.46 -79.1 0 0 541.08 449.00
  Q 541.59 445.52 541.02 442.06
  A 0.76 0.76 -87.7 0 0 540.45 441.44
  Q 529.16 438.55 519.00 440.50
  Q 508.98 442.42 509.17 451.66
  Q 509.25 455.68 511.44 458.20
  Q 513.88 461.02 518.00 461.75
  Q 520.48 462.19 531.11 463.15
  Q 532.54 463.28 533.25 463.82
  Q 534.47 464.74 534.07 466.15
  Q 533.69 467.49 532.16 468.10
  Z
  M 132.05 448.81
  L 154.47 448.75
  A 1.27 1.12 89.0 0 0 155.58 447.44
  L 155.39 441.63
  A 0.91 0.75 88.8 0 0 154.63 440.75
  L 123.16 440.75
  A 0.60 0.59 -0.0 0 0 122.56 441.34
  L 122.68 475.06
  A 0.52 0.51 90.0 0 0 123.19 475.58
  L 154.80 475.58
  A 0.51 0.50 -0.6 0 0 155.31 475.07
  L 155.20 468.31
  A 0.51 0.51 89.4 0 0 154.69 467.81
  L 132.02 467.75
  A 0.69 0.69 7.6 0 1 131.35 466.88
  Q 131.67 465.75 131.30 464.42
  A 1.36 1.33 -8.0 0 1 132.61 462.73
  L 149.94 462.47
  A 0.50 0.48 87.7 0 0 150.41 461.94
  L 150.09 455.44
  A 0.55 0.53 88.8 0 0 149.57 454.92
  L 131.81 454.69
  A 0.48 0.48 -88.2 0 1 131.34 454.19
  L 131.54 449.32
  A 0.53 0.51 -88.8 0 1 132.05 448.81
  Z
  M 177.54 467.19
  L 177.51 463.60
  A 0.92 0.86 -0.6 0 1 178.42 462.73
  L 195.49 462.53
  A 0.84 0.78 -89.6 0 0 196.26 461.71
  L 196.36 456.25
  A 1.48 1.40 -89.4 0 0 194.96 454.74
  L 178.06 454.70
  A 0.55 0.50 1.1 0 1 177.52 454.19
  L 177.63 449.43
  A 0.57 0.52 -0.1 0 1 178.19 448.92
  L 200.56 448.77
  A 0.90 0.85 -0.3 0 0 201.45 447.92
  L 201.50 441.25
  A 0.50 0.50 -45.0 0 0 201.00 440.75
  L 169.18 440.81
  A 0.52 0.50 90.0 0 0 168.68 441.33
  L 168.69 475.23
  A 0.52 0.50 90.0 0 0 169.19 475.75
  L 200.94 475.69
  A 0.52 0.49 0.0 0 0 201.46 475.20
  L 201.45 468.30
  A 0.51 0.49 -0.0 0 0 200.94 467.81
  L 178.07 467.69
  A 0.53 0.50 0.0 0 1 177.54 467.19
  Z
  M 423.81 448.81
  L 446.69 448.69
  A 0.53 0.51 -88.8 0 0 447.20 448.18
  L 447.42 441.61
  A 0.82 0.79 -89.3 0 0 446.62 440.76
  L 415.19 440.93
  A 0.51 0.50 -0.0 0 0 414.68 441.43
  L 414.51 474.98
  A 0.77 0.77 0.0 0 0 415.28 475.75
  L 446.30 475.75
  A 0.82 0.77 0.7 0 0 447.12 475.00
  L 447.24 468.31
  A 0.56 0.50 0.0 0 0 446.68 467.81
  L 424.06 467.69
  A 0.67 0.65 -7.4 0 1 423.42 467.21
  Q 422.92 465.25 423.42 463.29
  A 0.70 0.62 5.9 0 1 424.07 462.82
  L 441.51 462.52
  A 0.57 0.53 -0.0 0 0 442.07 462.00
  L 442.18 455.64
  A 0.95 0.88 0.3 0 0 441.23 454.75
  L 424.28 454.75
  A 1.00 0.94 -90.0 0 1 423.34 453.75
  L 423.34 449.32
  A 0.51 0.47 -90.0 0 1 423.81 448.81
  Z
  M 376.98 507.80
  A 1.78 1.78 0.0 0 0 375.20 506.02
  L 240.32 506.02
  A 1.78 1.78 0.0 0 0 238.54 507.80
  L 238.54 509.46
  A 1.78 1.78 0.0 0 0 240.32 511.24
  L 375.20 511.24
  A 1.78 1.78 0.0 0 0 376.98 509.46
  L 376.98 507.80
  Z
  M 222.95 538.32
  Q 223.05 542.25 223.01 546.19
  Q 223.01 546.29 222.87 547.29
  Q 222.61 549.24 226.15 548.52
  A 0.70 0.67 84.4 0 0 226.69 547.84
  L 226.55 534.44
  A 0.54 0.52 -87.7 0 0 226.07 533.90
  Q 219.19 533.43 212.31 534.02
  A 0.56 0.55 88.3 0 0 211.80 534.57
  L 211.75 548.12
  A 0.59 0.57 90.0 0 0 212.32 548.71
  L 214.94 548.72
  A 0.56 0.49 -88.3 0 0 215.44 548.18
  L 215.66 538.44
  A 0.57 0.54 -89.4 0 1 216.19 537.89
  L 222.44 537.78
  A 0.55 0.50 88.9 0 1 222.95 538.32
  Z
  M 241.50 540.06
  Q 242.21 545.56 241.75 546.75
  Q 240.75 549.32 244.75 548.49
  A 0.63 0.62 84.5 0 0 245.25 547.87
  L 245.25 534.55
  A 0.80 0.78 -84.8 0 0 244.61 533.77
  Q 242.42 533.35 241.13 534.86
  Q 237.60 538.99 234.30 543.33
  Q 233.75 544.05 233.75 543.14
  Q 233.75 539.87 233.75 536.50
  Q 233.75 536.39 233.84 535.51
  Q 234.06 533.40 230.50 534.32
  A 0.67 0.66 -7.4 0 0 230.00 534.96
  L 230.06 547.93
  A 0.75 0.68 -81.3 0 0 230.52 548.62
  Q 231.91 549.09 233.16 548.65
  Q 234.14 548.31 235.31 546.75
  Q 238.00 543.17 241.09 539.92
  Q 241.44 539.56 241.50 540.06
  Z
  M 261.87 541.17
  L 263.13 539.84
  A 1.42 1.09 72.0 0 0 263.45 538.94
  Q 263.46 534.39 258.75 534.01
  Q 254.74 533.69 249.60 534.41
  A 0.99 0.99 86.0 0 0 248.75 535.39
  L 248.75 547.57
  A 0.82 0.82 3.6 0 0 249.47 548.38
  Q 254.28 548.95 258.45 548.66
  Q 261.13 548.47 262.61 547.30
  Q 265.59 544.95 261.89 541.82
  A 0.46 0.43 -48.8 0 1 261.87 541.17
  Z
  M 304.45 540.06
  Q 304.53 542.79 304.51 545.53
  Q 304.50 547.85 304.54 547.95
  Q 305.04 549.07 307.74 548.48
  A 0.65 0.64 -6.1 0 0 308.25 547.85
  L 308.25 534.66
  A 0.62 0.62 -85.0 0 0 307.74 534.05
  Q 305.47 533.66 304.15 534.57
  Q 303.97 534.69 302.00 537.11
  Q 299.47 540.21 297.11 543.22
  Q 296.50 544.00 296.50 543.01
  L 296.50 535.25
  A 1.24 1.24 -88.0 0 0 295.35 534.01
  Q 293.23 533.87 292.79 534.72
  Q 292.71 534.89 292.81 536.78
  Q 293.08 541.43 293.01 546.09
  Q 293.01 546.17 292.81 547.38
  Q 292.54 548.96 295.31 548.66
  A 4.31 3.06 -65.5 0 0 297.77 547.23
  L 304.08 539.91
  Q 304.44 539.50 304.45 540.06
  Z
  M 326.05 537.99
  L 330.43 537.68
  A 1.22 0.59 4.3 0 0 331.30 537.34
  Q 331.57 536.96 331.44 536.47
  Q 331.29 535.87 331.34 535.51
  Q 331.61 533.47 329.67 533.64
  Q 328.42 533.75 328.32 533.75
  Q 323.23 533.75 317.34 533.75
  A 0.87 0.75 1.4 0 0 316.48 534.46
  L 316.35 537.28
  A 0.69 0.38 4.6 0 0 317.00 537.71
  L 321.58 538.07
  A 0.62 0.52 -88.0 0 1 322.07 538.69
  L 321.84 547.94
  A 0.71 0.59 -83.3 0 0 322.28 548.62
  Q 323.29 548.89 325.14 548.53
  A 0.76 0.76 -6.2 0 0 325.76 547.76
  L 325.57 538.57
  A 0.57 0.51 87.9 0 1 326.05 537.99
  Z
  M 350.4333 540.3591
  A 6.46 6.46 0.0 0 0 343.9959 533.8766
  L 340.2359 533.8635
  A 6.46 6.46 0.0 0 0 333.7534 540.3009
  L 333.7467 542.2409
  A 6.46 6.46 0.0 0 0 340.1841 548.7234
  L 343.9441 548.7365
  A 6.46 6.46 0.0 0 0 350.4266 542.2991
  L 350.4333 540.3591
  Z
  M 364.31 546.45
  L 364.14 547.94
  A 0.63 0.59 -77.6 0 0 364.54 548.61
  Q 368.68 550.03 367.75 545.50
  Q 367.34 543.50 367.67 534.57
  A 0.59 0.48 -88.9 0 0 367.19 533.96
  L 364.81 533.96
  A 0.61 0.51 -89.4 0 0 364.30 534.56
  L 364.20 540.18
  A 0.57 0.49 -88.5 0 1 363.69 540.74
  L 357.43 540.41
  A 0.69 0.57 86.9 0 1 356.87 539.81
  Q 356.71 538.54 356.62 537.25
  Q 356.61 537.13 356.75 535.40
  Q 356.91 533.35 353.88 534.17
  A 0.75 0.74 85.6 0 0 353.33 534.82
  Q 353.07 537.69 353.37 540.09
  Q 353.71 542.93 355.71 543.86
  Q 358.03 544.95 361.96 544.50
  Q 364.58 544.20 364.31 546.45
  Z
  M 375.19 539.21
  Q 374.65 536.99 375.25 534.76
  A 0.72 0.72 11.1 0 0 374.65 533.87
  Q 372.82 533.62 371.75 534.08
  A 0.83 0.69 80.6 0 0 371.32 534.81
  L 371.26 547.99
  A 0.66 0.43 88.9 0 0 371.72 548.66
  L 374.55 548.43
  A 0.69 0.61 83.3 0 0 375.10 547.65
  Q 374.43 543.26 376.97 543.76
  Q 378.10 543.98 379.54 545.44
  Q 380.98 546.90 382.45 548.34
  A 1.56 1.48 69.0 0 0 383.31 548.75
  Q 388.21 549.31 385.30 546.78
  Q 384.51 546.10 384.01 545.42
  Q 382.65 543.59 381.07 541.95
  A 0.55 0.48 43.4 0 1 381.01 541.27
  L 385.93 535.20
  A 0.79 0.74 -62.0 0 0 385.60 533.97
  Q 382.88 533.22 381.29 535.50
  Q 380.45 536.71 380.18 537.03
  Q 379.57 537.75 379.02 538.51
  Q 377.83 540.15 375.80 539.80
  A 0.79 0.76 88.1 0 1 375.19 539.21
  Z
  M 400.02 546.80
  Q 400.57 549.38 403.68 548.71
  A 0.64 0.64 71.0 0 0 404.12 547.80
  Q 401.66 542.77 399.43 537.75
  Q 399.40 537.69 398.81 536.08
  Q 397.69 532.97 394.28 534.14
  A 1.27 1.06 -83.1 0 0 393.60 534.78
  L 387.53 547.75
  A 0.56 0.53 -63.0 0 0 387.74 548.46
  Q 389.39 549.39 390.81 548.27
  A 1.45 0.94 85.1 0 0 391.25 547.44
  Q 391.60 545.55 393.49 545.61
  Q 395.39 545.66 395.50 545.66
  Q 397.54 545.56 399.46 546.15
  A 0.90 0.80 -89.1 0 1 400.02 546.80
  Z
  M 283.4665 540.0237
  A 6.08 6.08 0.0 0 0 277.3231 534.0077
  L 272.9834 534.0531
  A 6.08 6.08 0.0 0 0 266.9674 540.1965
  L 266.9935 542.6963
  A 6.08 6.08 0.0 0 0 273.1369 548.7123
  L 277.4766 548.6669
  A 6.08 6.08 0.0 0 0 283.4926 542.5235
  L 283.4665 540.0237
  Z"
/>
<path fill="#fee11a" d="
  M 263.68 243.30
  L 248.79 243.25
  A 0.80 0.79 90.0 0 0 248.00 244.05
  L 248.07 401.95
  A 1.06 1.05 0.0 0 1 247.01 403.00
  L 224.29 403.07
  A 0.54 0.54 89.8 0 1 223.75 402.53
  L 223.75 243.91
  A 0.66 0.66 45.0 0 0 223.09 243.25
  L 208.17 243.25
  A 0.67 0.67 45.0 0 0 207.50 243.92
  L 207.56 402.49
  A 0.51 0.51 -0.0 0 1 207.05 403.00
  L 169.38 403.18
  A 0.62 0.61 -0.5 0 1 168.75 402.57
  L 168.75 195.03
  A 1.11 1.10 -77.3 0 0 168.12 194.03
  Q 149.89 185.36 142.06 166.69
  Q 136.76 154.04 138.85 140.45
  Q 140.38 130.54 145.54 121.72
  Q 154.25 106.81 170.56 100.56
  Q 192.23 92.27 211.80 102.43
  Q 220.99 107.20 227.49 114.64
  Q 237.70 126.34 239.71 142.72
  Q 239.94 144.63 239.64 145.89
  Q 239.35 147.14 240.43 146.45
  Q 266.72 129.74 295.01 145.55
  A 2.88 2.87 -45.1 0 0 297.83 145.54
  Q 308.63 139.39 323.45 143.39
  A 1.71 1.70 -56.0 0 0 324.93 143.10
  Q 338.59 132.71 354.41 133.79
  Q 364.52 134.47 373.37 139.56
  Q 384.75 146.11 390.28 158.14
  Q 394.15 166.55 394.28 175.31
  Q 394.42 184.27 390.79 193.04
  Q 390.25 194.35 390.25 195.77
  L 390.25 244.47
  A 1.03 1.03 -89.8 0 0 391.28 245.50
  Q 408.82 245.50 425.53 245.50
  Q 434.64 245.50 439.34 246.88
  Q 450.42 250.15 457.44 259.56
  Q 467.86 273.54 472.10 291.98
  Q 478.84 321.20 477.63 351.03
  Q 477.19 361.80 476.10 370.96
  Q 474.26 386.44 469.68 402.10
  A 1.29 1.28 7.9 0 1 468.46 403.01
  L 430.24 403.24
  A 0.31 0.31 12.7 0 1 429.96 402.80
  Q 437.04 387.63 439.32 371.20
  Q 440.41 363.33 440.92 351.28
  Q 441.87 329.06 437.91 307.07
  Q 435.68 294.71 429.93 283.55
  Q 429.13 282.00 427.39 282.00
  L 391.11 282.00
  A 0.57 0.56 -87.2 0 0 390.55 282.51
  Q 390.12 286.87 390.14 290.75
  Q 390.30 346.72 390.19 402.29
  A 0.71 0.71 -0.0 0 1 389.48 403.00
  L 346.01 403.07
  A 0.51 0.51 -0.0 0 1 345.50 402.56
  L 345.50 243.81
  A 0.56 0.56 0.0 0 0 344.94 243.25
  L 330.10 243.25
  A 0.85 0.85 0.2 0 0 329.25 244.10
  L 329.25 402.34
  A 0.68 0.67 -0.0 0 1 328.57 403.01
  L 305.66 403.18
  A 0.66 0.64 0.0 0 1 305.00 402.54
  L 305.00 243.92
  A 0.67 0.67 0.0 0 0 304.33 243.25
  L 289.27 243.25
  A 0.52 0.52 90.0 0 0 288.75 243.77
  L 288.69 402.43
  A 0.51 0.51 -0.6 0 1 288.19 402.94
  L 265.17 403.27
  A 0.91 0.90 -0.3 0 1 264.25 402.37
  L 264.19 243.81
  A 0.52 0.51 0.6 0 0 263.68 243.30
  Z
  M 296.73 170.30
  Q 291.23 161.44 282.41 157.20
  Q 273.89 153.10 264.12 154.37
  Q 247.16 156.57 238.36 173.95
  A 0.49 0.49 40.2 0 1 237.52 174.02
  Q 230.22 163.97 218.55 166.81
  Q 218.07 166.93 218.31 166.51
  Q 222.23 159.64 223.22 152.02
  Q 224.21 144.45 221.86 137.14
  Q 218.69 127.29 210.78 121.00
  Q 203.39 115.13 193.51 113.70
  Q 180.30 111.78 169.67 119.36
  Q 161.45 125.22 157.45 133.93
  Q 153.22 143.16 155.06 153.69
  Q 156.52 161.99 161.75 168.68
  Q 166.65 174.94 174.15 178.62
  Q 190.48 186.65 208.08 176.80
  Q 208.51 176.56 208.37 177.04
  Q 206.25 184.42 209.60 190.20
  Q 212.73 195.61 219.09 197.74
  Q 227.93 200.70 235.60 193.15
  A 0.64 0.63 59.6 0 1 236.66 193.43
  Q 241.66 210.61 256.71 216.55
  Q 263.37 219.18 270.06 218.82
  Q 277.18 218.43 283.44 214.94
  Q 300.50 205.41 301.00 185.49
  Q 301.02 184.81 301.52 185.27
  Q 312.31 195.13 323.58 186.40
  Q 324.00 186.07 324.88 185.08
  Q 326.42 183.34 327.09 185.45
  Q 327.56 186.96 327.75 187.35
  Q 334.53 201.01 348.11 202.67
  Q 358.05 203.88 366.14 198.83
  Q 374.86 193.38 377.44 182.44
  Q 378.85 176.44 377.24 170.20
  Q 375.73 164.37 371.73 159.65
  Q 364.51 151.15 353.36 150.56
  Q 345.25 150.13 338.71 153.88
  Q 331.83 157.82 327.96 165.40
  A 0.68 0.67 40.7 0 1 326.81 165.48
  Q 322.37 159.35 315.76 158.28
  Q 309.77 157.31 304.66 160.41
  Q 299.41 163.59 297.43 170.20
  Q 297.18 171.04 296.73 170.30
  Z
  M 203.23 194.96
  Q 201.99 194.16 201.35 194.85
  Q 200.04 196.26 198.49 197.35
  Q 198.22 197.54 195.70 198.63
  Q 193.96 199.38 193.48 200.99
  Q 192.94 202.79 194.74 202.25
  Q 197.88 201.32 200.80 199.84
  Q 203.62 198.41 203.51 195.44
  A 0.60 0.58 15.7 0 0 203.23 194.96
  Z
  M 189.04 205.01
  Q 183.56 203.37 184.20 208.06
  Q 184.21 208.11 184.51 209.30
  Q 185.04 211.43 183.02 212.48
  Q 182.56 212.72 183.03 212.87
  Q 185.12 213.53 186.21 211.45
  Q 187.65 208.68 189.36 205.82
  A 0.55 0.55 23.5 0 0 189.04 205.01
  Z
  M 320.22 207.52
  Q 320.91 206.88 321.03 205.69
  A 0.46 0.44 84.4 0 0 320.46 205.20
  L 316.67 206.44
  A 0.98 0.92 66.3 0 0 316.18 207.81
  Q 316.72 208.80 316.52 209.79
  Q 316.37 210.55 315.50 211.35
  Q 313.57 213.13 311.46 214.29
  Q 309.65 215.28 308.08 213.95
  Q 306.59 212.70 304.79 213.51
  Q 301.41 215.02 298.57 217.37
  A 1.89 1.40 14.2 0 1 297.69 217.73
  Q 295.45 218.02 294.91 220.19
  A 0.42 0.41 -82.9 0 0 295.31 220.71
  Q 296.81 220.72 298.07 219.83
  Q 300.57 218.05 305.03 216.32
  A 2.23 2.20 -43.6 0 1 306.69 216.35
  Q 312.66 218.94 316.81 213.56
  Q 318.28 211.66 319.63 208.27
  Q 319.77 207.93 320.22 207.52
  Z"
/>
<path fill="#ffffff" d="
  M 296.73 170.30
  Q 297.18 171.04 297.43 170.20
  Q 299.41 163.59 304.66 160.41
  Q 309.77 157.31 315.76 158.28
  Q 322.37 159.35 326.81 165.48
  A 0.68 0.67 40.7 0 0 327.96 165.40
  Q 331.83 157.82 338.71 153.88
  Q 345.25 150.13 353.36 150.56
  Q 364.51 151.15 371.73 159.65
  Q 375.73 164.37 377.24 170.20
  Q 378.85 176.44 377.44 182.44
  Q 374.86 193.38 366.14 198.83
  Q 358.05 203.88 348.11 202.67
  Q 334.53 201.01 327.75 187.35
  Q 327.56 186.96 327.09 185.45
  Q 326.42 183.34 324.88 185.08
  Q 324.00 186.07 323.58 186.40
  Q 312.31 195.13 301.52 185.27
  Q 301.02 184.81 301.00 185.49
  Q 300.50 205.41 283.44 214.94
  Q 277.18 218.43 270.06 218.82
  Q 263.37 219.18 256.71 216.55
  Q 241.66 210.61 236.66 193.43
  A 0.64 0.63 59.6 0 0 235.60 193.15
  Q 227.93 200.70 219.09 197.74
  Q 212.73 195.61 209.60 190.20
  Q 206.25 184.42 208.37 177.04
  Q 208.51 176.56 208.08 176.80
  Q 190.48 186.65 174.15 178.62
  Q 166.65 174.94 161.75 168.68
  Q 156.52 161.99 155.06 153.69
  Q 153.22 143.16 157.45 133.93
  Q 161.45 125.22 169.67 119.36
  Q 180.30 111.78 193.51 113.70
  Q 203.39 115.13 210.78 121.00
  Q 218.69 127.29 221.86 137.14
  Q 224.21 144.45 223.22 152.02
  Q 222.23 159.64 218.31 166.51
  Q 218.07 166.93 218.55 166.81
  Q 230.22 163.97 237.52 174.02
  A 0.49 0.49 40.2 0 0 238.36 173.95
  Q 247.16 156.57 264.12 154.37
  Q 273.89 153.10 282.41 157.20
  Q 291.23 161.44 296.73 170.30
  Z"
/>
<path fill="#fee11a" d="
  M 203.23 194.96
  A 0.60 0.58 15.7 0 1 203.51 195.44
  Q 203.62 198.41 200.80 199.84
  Q 197.88 201.32 194.74 202.25
  Q 192.94 202.79 193.48 200.99
  Q 193.96 199.38 195.70 198.63
  Q 198.22 197.54 198.49 197.35
  Q 200.04 196.26 201.35 194.85
  Q 201.99 194.16 203.23 194.96
  Z"
/>
<path fill="#fee11a" d="
  M 189.04 205.01
  A 0.55 0.55 23.5 0 1 189.36 205.82
  Q 187.65 208.68 186.21 211.45
  Q 185.12 213.53 183.03 212.87
  Q 182.56 212.72 183.02 212.48
  Q 185.04 211.43 184.51 209.30
  Q 184.21 208.11 184.20 208.06
  Q 183.56 203.37 189.04 205.01
  Z"
/>
<path fill="#fee11a" d="
  M 319.63 208.27
  Q 318.28 211.66 316.81 213.56
  Q 312.66 218.94 306.69 216.35
  A 2.23 2.20 -43.6 0 0 305.03 216.32
  Q 300.57 218.05 298.07 219.83
  Q 296.81 220.72 295.31 220.71
  A 0.42 0.41 -82.9 0 1 294.91 220.19
  Q 295.45 218.02 297.69 217.73
  A 1.89 1.40 14.2 0 0 298.57 217.37
  Q 301.41 215.02 304.79 213.51
  Q 306.59 212.70 308.08 213.95
  Q 309.65 215.28 311.46 214.29
  Q 313.57 213.13 315.50 211.35
  Q 316.37 210.55 316.52 209.79
  Q 316.72 208.80 316.18 207.81
  A 0.98 0.92 66.3 0 1 316.67 206.44
  L 320.46 205.20
  A 0.46 0.44 84.4 0 1 321.03 205.69
  Q 320.91 206.88 320.22 207.52
  Q 319.77 207.93 319.63 208.27
  Z"
/>
<path fill="#000000" d="
  M 102.04 458.46
  Q 104.82 459.38 106.66 461.40
  Q 108.38 463.29 108.40 466.21
  Q 108.45 474.57 99.75 476.00
  Q 89.75 477.64 76.45 475.91
  Q 76.35 475.90 74.06 475.91
  Q 72.17 475.92 72.35 473.86
  Q 72.50 472.24 72.50 472.11
  Q 72.50 457.16 72.50 441.51
  A 0.71 0.71 -2.2 0 1 73.16 440.80
  Q 81.49 440.12 89.25 439.79
  Q 92.95 439.64 96.59 440.14
  Q 100.95 440.75 103.47 442.40
  Q 109.25 446.18 106.81 454.06
  Q 105.85 457.17 102.05 458.19
  Q 101.60 458.31 102.04 458.46
  Z
  M 97.63 448.45
  Q 89.84 447.03 82.06 448.23
  A 0.62 0.58 -4.1 0 0 81.54 448.80
  L 81.51 454.09
  A 0.64 0.64 0.5 0 0 82.14 454.73
  Q 89.63 454.90 96.23 454.27
  Q 100.55 453.86 99.05 449.66
  A 1.86 1.85 85.3 0 0 97.63 448.45
  Z
  M 100.2478 464.8629
  A 1.98 1.98 0.0 0 0 98.2851 462.8656
  L 83.2657 462.7346
  A 1.98 1.98 0.0 0 0 81.2685 464.6972
  L 81.2522 466.5571
  A 1.98 1.98 0.0 0 0 83.2149 468.5544
  L 98.2343 468.6854
  A 1.98 1.98 0.0 0 0 100.2315 466.7228
  L 100.2478 464.8629
  Z"
/>
<path fill="#000000" d="
  M 223.55 464.82
  L 223.51 474.89
  A 0.87 0.86 -89.7 0 1 222.65 475.75
  L 215.38 475.75
  A 0.88 0.88 -45.0 0 1 214.50 474.87
  L 214.50 441.53
  A 0.75 0.74 -2.5 0 1 215.18 440.79
  Q 223.49 440.16 231.25 439.76
  Q 235.27 439.56 239.18 440.25
  Q 243.26 440.97 245.52 442.58
  Q 248.62 444.80 249.35 448.59
  Q 250.12 452.62 249.30 456.41
  Q 248.38 460.68 244.19 463.01
  A 0.50 0.49 -29.9 0 0 244.00 463.69
  L 250.02 473.95
  A 1.02 1.01 68.6 0 1 249.37 475.46
  Q 246.01 476.17 242.00 475.58
  A 1.18 1.10 -10.7 0 1 241.21 475.08
  L 235.20 465.66
  A 1.86 1.74 74.1 0 0 233.80 464.82
  L 224.06 464.34
  A 0.49 0.48 1.1 0 0 223.55 464.82
  Z
  M 227.18 456.67
  Q 230.39 456.97 233.59 456.72
  Q 237.53 456.43 237.90 456.32
  Q 240.48 455.61 240.69 452.26
  Q 240.93 448.44 237.50 448.00
  Q 231.46 447.23 224.06 448.24
  A 0.60 0.58 -3.9 0 0 223.54 448.82
  L 223.55 455.93
  A 0.54 0.53 1.1 0 0 224.07 456.46
  Q 225.63 456.52 227.18 456.67
  Z"
/>
<path fill="#000000" d="
  M 268.72 473.02
  Q 262.75 468.46 263.12 462.69
  Q 263.27 460.40 263.22 458.10
  Q 262.90 442.85 276.06 440.31
  Q 285.13 438.57 295.83 441.55
  A 0.74 0.66 8.3 0 1 296.36 442.19
  L 296.47 449.19
  A 0.39 0.37 8.6 0 1 295.96 449.54
  Q 287.52 446.93 278.85 448.11
  Q 275.85 448.52 274.45 449.70
  Q 272.51 451.34 272.27 454.25
  Q 271.98 457.62 272.06 461.00
  Q 272.16 465.26 275.09 467.24
  Q 277.03 468.56 281.17 468.75
  Q 288.69 469.08 295.99 467.00
  A 0.47 0.46 83.0 0 1 296.57 467.46
  L 296.51 474.42
  A 0.66 0.65 83.3 0 1 296.01 475.06
  Q 284.67 477.84 274.00 475.75
  Q 271.69 475.30 268.72 473.02
  Z"
/>
<path fill="#000000" d="
  M 348.91 461.33
  A 15.24 15.24 0.0 0 1 333.67 476.57
  L 324.33 476.57
  A 15.24 15.24 0.0 0 1 309.09 461.33
  L 309.09 455.17
  A 15.24 15.24 0.0 0 1 324.33 439.93
  L 333.67 439.93
  A 15.24 15.24 0.0 0 1 348.91 455.17
  L 348.91 461.33
  Z
  M 340.11 455.51
  A 7.67 7.67 0.0 0 0 332.44 447.84
  L 325.70 447.84
  A 7.67 7.67 0.0 0 0 318.03 455.51
  L 318.03 460.99
  A 7.67 7.67 0.0 0 0 325.70 468.66
  L 332.44 468.66
  A 7.67 7.67 0.0 0 0 340.11 460.99
  L 340.11 455.51
  Z"
/>
<path fill="#000000" d="
  M 363.51 475.53
  A 0.62 0.62 -85.0 0 1 363.00 474.92
  L 363.00 441.57
  A 0.73 0.72 -3.6 0 1 363.64 440.85
  Q 369.11 440.21 373.73 439.76
  Q 384.30 438.73 391.44 441.81
  Q 398.61 444.91 399.86 452.68
  Q 400.90 459.13 399.50 465.50
  Q 398.31 470.92 393.65 473.68
  Q 390.58 475.51 384.53 476.22
  Q 374.10 477.44 363.51 475.53
  Z
  M 386.33 448.73
  Q 383.96 447.73 381.25 447.74
  Q 377.00 447.75 372.56 447.75
  A 0.56 0.56 0.0 0 0 372.00 448.31
  L 372.00 468.19
  A 0.54 0.54 1.1 0 0 372.52 468.73
  Q 378.51 468.91 383.72 468.26
  Q 391.34 467.32 391.17 460.21
  Q 391.17 459.99 391.18 456.29
  Q 391.19 453.91 390.10 451.96
  Q 388.89 449.80 386.33 448.73
  Z"
/>
<path fill="#000000" d="
  M 480.20 465.01
  L 469.80 464.33
  A 0.47 0.46 1.7 0 0 469.29 464.80
  L 469.52 474.95
  A 0.56 0.48 88.9 0 1 469.05 475.52
  L 460.97 475.73
  A 0.49 0.46 89.4 0 1 460.50 475.24
  L 460.50 441.37
  A 0.56 0.55 -2.9 0 1 461.00 440.82
  Q 466.46 440.30 471.48 440.09
  Q 471.57 440.09 477.02 439.70
  Q 484.13 439.20 489.69 441.56
  Q 494.16 443.46 495.08 447.89
  Q 495.84 451.58 495.25 455.60
  Q 494.53 460.47 489.94 463.24
  A 0.51 0.49 59.2 0 0 489.78 463.92
  L 496.16 474.75
  A 0.50 0.48 73.4 0 1 495.77 475.50
  L 488.86 475.70
  Q 487.29 475.74 486.38 474.28
  L 480.94 465.49
  A 1.04 0.87 73.1 0 0 480.20 465.01
  Z
  M 472.93 456.65
  Q 476.48 456.98 480.02 456.70
  Q 483.35 456.44 483.96 456.23
  Q 486.23 455.45 486.40 452.43
  Q 486.63 448.07 482.25 447.75
  Q 478.91 447.50 470.06 448.03
  A 0.55 0.53 -1.7 0 0 469.54 448.56
  L 469.55 455.95
  A 0.53 0.51 1.2 0 0 470.06 456.46
  Q 471.50 456.52 472.93 456.65
  Z"
/>
<path fill="#000000" d="
  M 534.07 466.15
  Q 534.47 464.74 533.25 463.82
  Q 532.54 463.28 531.11 463.15
  Q 520.48 462.19 518.00 461.75
  Q 513.88 461.02 511.44 458.20
  Q 509.25 455.68 509.17 451.66
  Q 508.98 442.42 519.00 440.50
  Q 529.16 438.55 540.45 441.44
  A 0.76 0.76 -87.7 0 1 541.02 442.06
  Q 541.59 445.52 541.08 449.00
  A 0.46 0.46 -79.1 0 1 540.52 449.38
  Q 530.60 446.85 521.31 448.06
  Q 518.22 448.47 518.14 451.09
  Q 518.08 452.80 519.53 453.74
  Q 520.92 454.65 522.75 454.68
  Q 529.06 454.77 535.19 456.24
  Q 542.10 457.90 542.99 463.93
  Q 543.58 467.99 541.51 471.26
  Q 539.27 474.80 534.69 475.69
  Q 522.67 478.01 509.80 475.05
  A 0.75 0.74 -88.3 0 1 509.23 474.44
  Q 508.66 470.98 509.17 467.50
  A 0.48 0.48 9.7 0 1 509.74 467.10
  Q 518.18 468.85 528.50 468.75
  Q 530.59 468.73 532.16 468.10
  Q 533.69 467.49 534.07 466.15
  Z"
/>
<path fill="#000000" d="
  M 131.54 449.32
  L 131.34 454.19
  A 0.48 0.48 -88.2 0 0 131.81 454.69
  L 149.57 454.92
  A 0.55 0.53 88.8 0 1 150.09 455.44
  L 150.41 461.94
  A 0.50 0.48 87.7 0 1 149.94 462.47
  L 132.61 462.73
  A 1.36 1.33 -8.0 0 0 131.30 464.42
  Q 131.67 465.75 131.35 466.88
  A 0.69 0.69 7.6 0 0 132.02 467.75
  L 154.69 467.81
  A 0.51 0.51 89.4 0 1 155.20 468.31
  L 155.31 475.07
  A 0.51 0.50 -0.6 0 1 154.80 475.58
  L 123.19 475.58
  A 0.52 0.51 -90.0 0 1 122.68 475.06
  L 122.56 441.34
  A 0.60 0.59 -0.0 0 1 123.16 440.75
  L 154.63 440.75
  A 0.91 0.75 88.8 0 1 155.39 441.63
  L 155.58 447.44
  A 1.27 1.12 89.0 0 1 154.47 448.75
  L 132.05 448.81
  A 0.53 0.51 -88.8 0 0 131.54 449.32
  Z"
/>
<path fill="#000000" d="
  M 178.07 467.69
  L 200.94 467.81
  A 0.51 0.49 0.0 0 1 201.45 468.30
  L 201.46 475.20
  A 0.52 0.49 -0.0 0 1 200.94 475.69
  L 169.19 475.75
  A 0.52 0.50 -90.0 0 1 168.69 475.23
  L 168.68 441.33
  A 0.52 0.50 -90.0 0 1 169.18 440.81
  L 201.00 440.75
  A 0.50 0.50 45.0 0 1 201.50 441.25
  L 201.45 447.92
  A 0.90 0.85 -0.3 0 1 200.56 448.77
  L 178.19 448.92
  A 0.57 0.52 -0.1 0 0 177.63 449.43
  L 177.52 454.19
  A 0.55 0.50 1.1 0 0 178.06 454.70
  L 194.96 454.74
  A 1.48 1.40 -89.4 0 1 196.36 456.25
  L 196.26 461.71
  A 0.84 0.78 -89.6 0 1 195.49 462.53
  L 178.42 462.73
  A 0.92 0.86 -0.6 0 0 177.51 463.60
  L 177.54 467.19
  A 0.53 0.50 0.0 0 0 178.07 467.69
  Z"
/>
<path fill="#000000" d="
  M 423.34 449.32
  L 423.34 453.75
  A 1.00 0.94 -90.0 0 0 424.28 454.75
  L 441.23 454.75
  A 0.95 0.88 0.3 0 1 442.18 455.64
  L 442.07 462.00
  A 0.57 0.53 -0.0 0 1 441.51 462.52
  L 424.07 462.82
  A 0.70 0.62 5.9 0 0 423.42 463.29
  Q 422.92 465.25 423.42 467.21
  A 0.67 0.65 -7.4 0 0 424.06 467.69
  L 446.68 467.81
  A 0.56 0.50 -0.0 0 1 447.24 468.31
  L 447.12 475.00
  A 0.82 0.77 0.7 0 1 446.30 475.75
  L 415.28 475.75
  A 0.77 0.77 45.0 0 1 414.51 474.98
  L 414.68 441.43
  A 0.51 0.50 -0.0 0 1 415.19 440.93
  L 446.62 440.76
  A 0.82 0.79 -89.3 0 1 447.42 441.61
  L 447.20 448.18
  A 0.53 0.51 -88.8 0 1 446.69 448.69
  L 423.81 448.81
  A 0.51 0.47 90.0 0 0 423.34 449.32
  Z"
/>
<path fill="#ffffff" d="
  M 97.63 448.45
  A 1.86 1.85 85.3 0 1 99.05 449.66
  Q 100.55 453.86 96.23 454.27
  Q 89.63 454.90 82.14 454.73
  A 0.64 0.64 0.5 0 1 81.51 454.09
  L 81.54 448.80
  A 0.62 0.58 -4.1 0 1 82.06 448.23
  Q 89.84 447.03 97.63 448.45
  Z"
/>
<path fill="#ffffff" d="
  M 227.18 456.67
  Q 225.63 456.52 224.07 456.46
  A 0.54 0.53 1.1 0 1 223.55 455.93
  L 223.54 448.82
  A 0.60 0.58 -3.9 0 1 224.06 448.24
  Q 231.46 447.23 237.50 448.00
  Q 240.93 448.44 240.69 452.26
  Q 240.48 455.61 237.90 456.32
  Q 237.53 456.43 233.59 456.72
  Q 230.39 456.97 227.18 456.67
  Z"
/>
<rect fill="#ffffff" x="318.03" y="447.84" width="22.08" height="20.82" rx="7.67"/>
<path fill="#ffffff" d="
  M 390.10 451.96
  Q 391.19 453.91 391.18 456.29
  Q 391.17 459.99 391.17 460.21
  Q 391.34 467.32 383.72 468.26
  Q 378.51 468.91 372.52 468.73
  A 0.54 0.54 1.1 0 1 372.00 468.19
  L 372.00 448.31
  A 0.56 0.56 -0.0 0 1 372.56 447.75
  Q 377.00 447.75 381.25 447.74
  Q 383.96 447.73 386.33 448.73
  Q 388.89 449.80 390.10 451.96
  Z"
/>
<path fill="#ffffff" d="
  M 472.93 456.65
  Q 471.50 456.52 470.06 456.46
  A 0.53 0.51 1.2 0 1 469.55 455.95
  L 469.54 448.56
  A 0.55 0.53 -1.7 0 1 470.06 448.03
  Q 478.91 447.50 482.25 447.75
  Q 486.63 448.07 486.40 452.43
  Q 486.23 455.45 483.96 456.23
  Q 483.35 456.44 480.02 456.70
  Q 476.48 456.98 472.93 456.65
  Z"
/>
<rect fill="#ffffff" x="-9.49" y="-2.91" transform="translate(90.75,465.71) rotate(0.5)" width="18.98" height="5.82" rx="1.98"/>
<rect fill="#fbdf28" x="238.54" y="506.02" width="138.44" height="5.22" rx="1.78"/>
<path fill="#000000" d="
  M 222.44 537.78
  L 216.19 537.89
  A 0.57 0.54 -89.4 0 0 215.66 538.44
  L 215.44 548.18
  A 0.56 0.49 -88.3 0 1 214.94 548.72
  L 212.32 548.71
  A 0.59 0.57 90.0 0 1 211.75 548.12
  L 211.80 534.57
  A 0.56 0.55 88.3 0 1 212.31 534.02
  Q 219.19 533.43 226.07 533.90
  A 0.54 0.52 -87.7 0 1 226.55 534.44
  L 226.69 547.84
  A 0.70 0.67 84.4 0 1 226.15 548.52
  Q 222.61 549.24 222.87 547.29
  Q 223.01 546.29 223.01 546.19
  Q 223.05 542.25 222.95 538.32
  A 0.55 0.50 88.9 0 0 222.44 537.78
  Z"
/>
<path fill="#000000" d="
  M 241.09 539.92
  Q 238.00 543.17 235.31 546.75
  Q 234.14 548.31 233.16 548.65
  Q 231.91 549.09 230.52 548.62
  A 0.75 0.68 -81.3 0 1 230.06 547.93
  L 230.00 534.96
  A 0.67 0.66 -7.4 0 1 230.50 534.32
  Q 234.06 533.40 233.84 535.51
  Q 233.75 536.39 233.75 536.50
  Q 233.75 539.87 233.75 543.14
  Q 233.75 544.05 234.30 543.33
  Q 237.60 538.99 241.13 534.86
  Q 242.42 533.35 244.61 533.77
  A 0.80 0.78 -84.8 0 1 245.25 534.55
  L 245.25 547.87
  A 0.63 0.62 84.5 0 1 244.75 548.49
  Q 240.75 549.32 241.75 546.75
  Q 242.21 545.56 241.50 540.06
  Q 241.44 539.56 241.09 539.92
  Z"
/>
<path fill="#000000" d="
  M 261.89 541.82
  Q 265.59 544.95 262.61 547.30
  Q 261.13 548.47 258.45 548.66
  Q 254.28 548.95 249.47 548.38
  A 0.82 0.82 3.6 0 1 248.75 547.57
  L 248.75 535.39
  A 0.99 0.99 86.0 0 1 249.60 534.41
  Q 254.74 533.69 258.75 534.01
  Q 263.46 534.39 263.45 538.94
  A 1.42 1.09 72.0 0 1 263.13 539.84
  L 261.87 541.17
  A 0.46 0.43 -48.8 0 0 261.89 541.82
  Z
  M 260.4602 538.7514
  A 0.95 0.95 0.0 0 0 259.5151 537.7965
  L 253.2352 537.7636
  A 0.95 0.95 0.0 0 0 252.2803 538.7086
  L 252.2798 538.7886
  A 0.95 0.95 0.0 0 0 253.2249 539.7435
  L 259.5048 539.7764
  A 0.95 0.95 0.0 0 0 260.4597 538.8314
  L 260.4602 538.7514
  Z
  M 260.7785 544.4361
  A 4.35 0.73 -1.5 0 0 256.4109 543.8203
  A 4.35 0.73 -1.5 0 0 252.0815 544.6639
  A 4.35 0.73 -1.5 0 0 256.4491 545.2797
  A 4.35 0.73 -1.5 0 0 260.7785 544.4361
  Z"
/>
<path fill="#000000" d="
  M 304.08 539.91
  L 297.77 547.23
  A 4.31 3.06 -65.5 0 1 295.31 548.66
  Q 292.54 548.96 292.81 547.38
  Q 293.01 546.17 293.01 546.09
  Q 293.08 541.43 292.81 536.78
  Q 292.71 534.89 292.79 534.72
  Q 293.23 533.87 295.35 534.01
  A 1.24 1.24 -88.0 0 1 296.50 535.25
  L 296.50 543.01
  Q 296.50 544.00 297.11 543.22
  Q 299.47 540.21 302.00 537.11
  Q 303.97 534.69 304.15 534.57
  Q 305.47 533.66 307.74 534.05
  A 0.62 0.62 -85.0 0 1 308.25 534.66
  L 308.25 547.85
  A 0.65 0.64 -6.1 0 1 307.74 548.48
  Q 305.04 549.07 304.54 547.95
  Q 304.50 547.85 304.51 545.53
  Q 304.53 542.79 304.45 540.06
  Q 304.44 539.50 304.08 539.91
  Z"
/>
<path fill="#000000" d="
  M 325.57 538.57
  L 325.76 547.76
  A 0.76 0.76 -6.2 0 1 325.14 548.53
  Q 323.29 548.89 322.28 548.62
  A 0.71 0.59 -83.3 0 1 321.84 547.94
  L 322.07 538.69
  A 0.62 0.52 -88.0 0 0 321.58 538.07
  L 317.00 537.71
  A 0.69 0.38 4.6 0 1 316.35 537.28
  L 316.48 534.46
  A 0.87 0.75 1.4 0 1 317.34 533.75
  Q 323.23 533.75 328.32 533.75
  Q 328.42 533.75 329.67 533.64
  Q 331.61 533.47 331.34 535.51
  Q 331.29 535.87 331.44 536.47
  Q 331.57 536.96 331.30 537.34
  A 1.22 0.59 4.3 0 1 330.43 537.68
  L 326.05 537.99
  A 0.57 0.51 87.9 0 0 325.57 538.57
  Z"
/>
<path fill="#000000" d="
  M 350.4266 542.2991
  A 6.46 6.46 0.0 0 1 343.9441 548.7365
  L 340.1841 548.7234
  A 6.46 6.46 0.0 0 1 333.7467 542.2409
  L 333.7534 540.3009
  A 6.46 6.46 0.0 0 1 340.2359 533.8635
  L 343.9959 533.8766
  A 6.46 6.46 0.0 0 1 350.4333 540.3591
  L 350.4266 542.2991
  Z
  M 346.7186 540.5218
  A 2.94 2.94 0.0 0 0 343.7734 537.5869
  L 340.2534 537.5931
  A 2.94 2.94 0.0 0 0 337.3186 540.5382
  L 337.3214 542.1782
  A 2.94 2.94 0.0 0 0 340.2666 545.1131
  L 343.7866 545.1069
  A 2.94 2.94 0.0 0 0 346.7214 542.1618
  L 346.7186 540.5218
  Z"
/>
<path fill="#000000" d="
  M 364.31 546.45
  Q 364.58 544.20 361.96 544.50
  Q 358.03 544.95 355.71 543.86
  Q 353.71 542.93 353.37 540.09
  Q 353.07 537.69 353.33 534.82
  A 0.75 0.74 85.6 0 1 353.88 534.17
  Q 356.91 533.35 356.75 535.40
  Q 356.61 537.13 356.62 537.25
  Q 356.71 538.54 356.87 539.81
  A 0.69 0.57 86.9 0 0 357.43 540.41
  L 363.69 540.74
  A 0.57 0.49 -88.5 0 0 364.20 540.18
  L 364.30 534.56
  A 0.61 0.51 -89.4 0 1 364.81 533.96
  L 367.19 533.96
  A 0.59 0.48 -88.9 0 1 367.67 534.57
  Q 367.34 543.50 367.75 545.50
  Q 368.68 550.03 364.54 548.61
  A 0.63 0.59 -77.6 0 1 364.14 547.94
  L 364.31 546.45
  Z"
/>
<path fill="#000000" d="
  M 375.80 539.80
  Q 377.83 540.15 379.02 538.51
  Q 379.57 537.75 380.18 537.03
  Q 380.45 536.71 381.29 535.50
  Q 382.88 533.22 385.60 533.97
  A 0.79 0.74 -62.0 0 1 385.93 535.20
  L 381.01 541.27
  A 0.55 0.48 43.4 0 0 381.07 541.95
  Q 382.65 543.59 384.01 545.42
  Q 384.51 546.10 385.30 546.78
  Q 388.21 549.31 383.31 548.75
  A 1.56 1.48 69.0 0 1 382.45 548.34
  Q 380.98 546.90 379.54 545.44
  Q 378.10 543.98 376.97 543.76
  Q 374.43 543.26 375.10 547.65
  A 0.69 0.61 83.3 0 1 374.55 548.43
  L 371.72 548.66
  A 0.66 0.43 88.9 0 1 371.26 547.99
  L 371.32 534.81
  A 0.83 0.69 80.6 0 1 371.75 534.08
  Q 372.82 533.62 374.65 533.87
  A 0.72 0.72 11.1 0 1 375.25 534.76
  Q 374.65 536.99 375.19 539.21
  A 0.79 0.76 88.1 0 0 375.80 539.80
  Z"
/>
<path fill="#000000" d="
  M 399.46 546.15
  Q 397.54 545.56 395.50 545.66
  Q 395.39 545.66 393.49 545.61
  Q 391.60 545.55 391.25 547.44
  A 1.45 0.94 85.1 0 1 390.81 548.27
  Q 389.39 549.39 387.74 548.46
  A 0.56 0.53 -63.0 0 1 387.53 547.75
  L 393.60 534.78
  A 1.27 1.06 -83.1 0 1 394.28 534.14
  Q 397.69 532.97 398.81 536.08
  Q 399.40 537.69 399.43 537.75
  Q 401.66 542.77 404.12 547.80
  A 0.64 0.64 71.0 0 1 403.68 548.71
  Q 400.57 549.38 400.02 546.80
  A 0.90 0.80 -89.1 0 0 399.46 546.15
  Z
  M 395.50 538.32
  L 393.53 542.24
  A 0.33 0.32 -76.6 0 0 393.81 542.71
  L 397.63 542.75
  A 0.42 0.42 -13.3 0 0 398.01 542.14
  L 396.11 538.32
  Q 395.81 537.71 395.50 538.32
  Z"
/>
<path fill="#000000" d="
  M 283.4926 542.5235
  A 6.08 6.08 0.0 0 1 277.4766 548.6669
  L 273.1369 548.7123
  A 6.08 6.08 0.0 0 1 266.9935 542.6963
  L 266.9674 540.1965
  A 6.08 6.08 0.0 0 1 272.9834 534.0531
  L 277.3231 534.0077
  A 6.08 6.08 0.0 0 1 283.4665 540.0237
  L 283.4926 542.5235
  Z
  M 280.0098 540.5880
  A 2.78 2.78 0.0 0 0 277.2640 537.7742
  L 273.3442 537.7263
  A 2.78 2.78 0.0 0 0 270.5305 540.4722
  L 270.5102 542.1320
  A 2.78 2.78 0.0 0 0 273.2560 544.9458
  L 277.1758 544.9937
  A 2.78 2.78 0.0 0 0 279.9895 542.2478
  L 280.0098 540.5880
  Z"
/>
<rect fill="#ffffff" x="-4.70" y="-3.76" transform="translate(342.02,541.35) rotate(-0.1)" width="9.40" height="7.52" rx="2.94"/>
<rect fill="#ffffff" x="-4.09" y="-0.99" transform="translate(256.37,538.77) rotate(0.3)" width="8.18" height="1.98" rx="0.95"/>
<rect fill="#ffffff" x="-4.74" y="-3.61" transform="translate(275.26,541.36) rotate(0.7)" width="9.48" height="7.22" rx="2.78"/>
<path fill="#ffffff" d="
  M 395.50 538.32
  Q 395.81 537.71 396.11 538.32
  L 398.01 542.14
  A 0.42 0.42 -13.3 0 1 397.63 542.75
  L 393.81 542.71
  A 0.33 0.32 -76.6 0 1 393.53 542.24
  L 395.50 538.32
  Z"
/>
<ellipse fill="#ffffff" cx="0.00" cy="0.00" transform="translate(256.43,544.55) rotate(-1.5)" rx="4.35" ry="0.73"/>
</svg>
